<?xml version="1.0" encoding="utf-8"?>
<!-- Generator: Adobe Illustrator 27.0.0, SVG Export Plug-In . SVG Version: 6.00 Build 0)  -->
<svg version="1.1" xmlns="http://www.w3.org/2000/svg" xmlns:xlink="http://www.w3.org/1999/xlink" x="0px" y="0px"
	 viewBox="0 0 1920 1080" style="enable-background:new 0 0 1920 1080;" xml:space="preserve">
<style type="text/css">
	.st0{fill:#1C4DA8;}
	.st1{fill:none;stroke:#707070;}
</style>
<g id="Ebene_1">
</g>
<g id="Ebene_2">
</g>
<g id="Ebene_3">
	<g id="Rechteck_31" transform="translate(1021 3730)">
		<path class="st0" d="M-185-3259h65c9.9,0,18,8.1,18,18v68c0,9.9-8.1,18-18,18h-65c-9.9,0-18-8.1-18-18v-68
			C-203-3250.9-194.9-3259-185-3259z"/>
		<path class="st1" d="M-185-3258.5h65c9.7,0,17.5,7.8,17.5,17.5v68c0,9.7-7.8,17.5-17.5,17.5h-65c-9.7,0-17.5-7.8-17.5-17.5v-68
			C-202.5-3250.7-194.7-3258.5-185-3258.5z"/>
	</g>
</g>
</svg>
