<?xml version="1.0" encoding="utf-8"?>
<!-- Generator: Adobe Illustrator 27.0.0, SVG Export Plug-In . SVG Version: 6.00 Build 0)  -->
<svg version="1.1" id="Ebene_1" xmlns="http://www.w3.org/2000/svg" xmlns:xlink="http://www.w3.org/1999/xlink" x="0px" y="0px"
	 viewBox="0 0 200 200" style="enable-background:new 0 0 200 200;" xml:space="preserve">
<style type="text/css">
	.st0{fill:#1C4DA8;}
	.st1{fill:none;stroke:#707070;}
</style>
<g id="Rechteck_30">
	<path class="st0" d="M67.4,47.7h65c9.9,0,18,8.1,18,18v68c0,9.9-8.1,18-18,18h-65c-9.9,0-18-8.1-18-18v-68
		C49.4,55.8,57.5,47.7,67.4,47.7z"/>
	<path class="st1" d="M67.4,48.2h65c9.7,0,17.5,7.8,17.5,17.5v68c0,9.7-7.8,17.5-17.5,17.5h-65c-9.7,0-17.5-7.8-17.5-17.5v-68
		C49.9,56.1,57.8,48.2,67.4,48.2z"/>
</g>
</svg>
