<?xml version="1.0" encoding="utf-8"?>
<!-- Generator: Adobe Illustrator 27.0.0, SVG Export Plug-In . SVG Version: 6.00 Build 0)  -->
<svg version="1.1" xmlns="http://www.w3.org/2000/svg" xmlns:xlink="http://www.w3.org/1999/xlink" x="0px" y="0px"
     viewBox="0 0 1920 2522" style="enable-background:new 0 0 1920 2522;" xml:space="preserve">
<style type="text/css">
.st0{fill:none;stroke:#FFFFFF;stroke-width:6;stroke-linecap:round;stroke-dasharray:18;}
.st1{fill:#020202;}
.st2{fill:none;stroke:#000000;stroke-width:6;}
.st3{opacity:0;}
.st4{fill:#004DFF;}
.st5{fill:#FFFFFF;}
.st6{font-family:'Merriweather';}
.st7{font-size:18px;}
.st8{fill:#313131;}
.st9{fill:none;stroke:#FFFFFF;stroke-width:5;}
</style>
  <g id="Ebene_1">
</g>
  <g id="Ebene_3">
<g>
<g>
<path id="Oooh_the_line_" class="st0" d="M1008,1989.2l0-767"/>
  <g id="Tooltip" transform="translate(901 617)">
<g id="Ellipse_4" transform="translate(51 61)">
<circle class="st1" cx="56.5" cy="1216.7" r="12"/>
  <circle class="st2" cx="56.5" cy="1216.7" r="9"/>
</g>
    <g id="Gruppe_24" transform="translate(-1620 -1102)" class="st3">
<path id="Pfad_9" class="st4" d="M1787.4,2452.7h-129.9c-1.7,0-3.1-1.8-3.1-4v-45c0-2.2,1.4-4,3.1-4h63.7l4.4-8l4.4,8h57.4
c1.7,0,3.1,1.8,3.1,4v45C1790.5,2450.9,1789.1,2452.7,1787.4,2452.7z"/>
      <text transform="matrix(-1 0 0 -1 1770.4336 2420.7207)" class="st5 st6 st7">Early Days</text>
</g>
    <g id="Halo" transform="translate(33 31)">
<circle class="st8" cx="74.5" cy="1258.7" r="30"/>
      <circle class="st9" cx="74.5" cy="1258.7" r="27.5"/>
</g>
    <g id="Halo-2" transform="translate(51 49)">
<circle class="st8" cx="56.5" cy="1240.7" r="12"/>
      <circle class="st9" cx="56.5" cy="1240.7" r="9.5"/>
</g>
</g>
  <g id="Tooltip-2" transform="translate(892 1331)">
<g id="Ellipse_4-2" transform="translate(60 61)">
<circle class="st1" cx="56.5" cy="-211.3" r="12"/>
  <circle class="st2" cx="56.5" cy="-211.3" r="9"/>
</g>
    <g id="Gruppe_24-2" transform="translate(-1611 -1102)" class="st3">
<path id="Pfad_9-2" class="st4" d="M1796,1024.7l-147.1,0c-2.1-0.2-3.6-1.9-3.5-4l0-45c-0.1-2.1,1.4-3.8,3.5-4l72.1,0l5-8
l4.9,8h65c2.1,0.2,3.6,1.9,3.5,4l0,45C1799.6,1022.8,1798.1,1024.6,1796,1024.7z"/>
      <text transform="matrix(-1 0 0 -1 1779.9434 992.7207)" class="st5 st6 st7">First Release</text>
</g>
    <g id="Halo-3" transform="translate(42 31)">
<circle class="st8" cx="74.5" cy="-169.3" r="30"/>
      <circle class="st9" cx="74.5" cy="-169.3" r="27.5"/>
</g>
    <g id="Halo-4" transform="translate(60 49)">
<circle class="st8" cx="56.5" cy="-187.3" r="12"/>
      <circle class="st9" cx="56.5" cy="-187.3" r="9.5"/>
</g>
</g>
  <g id="Halo-7" transform="translate(953 593)">
<circle class="st8" cx="54.5" cy="1386.7" r="12"/>
    <circle class="st9" cx="54.5" cy="1386.7" r="9.5"/>
</g>
</g>
  <g>
<g>
<path id="Oooh_the_line__00000031165097206174457190000012206902199370400441_" class="st0" d="M1010.2,1150.9l0-767"/>
  <g id="Tooltip_00000155855998516756251170000000550896944598155650_" transform="translate(901 617)">
<g id="Ellipse_4_00000162315858214652223290000016118236388458775483_" transform="translate(51 61)">
<circle class="st1" cx="60.7" cy="-218.6" r="12"/>
  <circle class="st2" cx="60.7" cy="-218.6" r="9"/>
</g>
    <g id="Gruppe_24_00000157266424277006644590000002966117764380284065_" transform="translate(-1620 -1102)" class="st3">
<path id="Pfad_9_00000004520502719103298340000013045761265353910913_" class="st4" d="M1791.6,1017.4h-129.9
c-1.7,0-3.1-1.8-3.1-4v-45c0-2.2,1.4-4,3.1-4h63.7l4.4-8l4.4,8h57.4c1.7,0,3.1,1.8,3.1,4v45
C1794.7,1015.6,1793.3,1017.4,1791.6,1017.4z"/>
      <text transform="matrix(-1 0 0 -1 1774.6289 985.3828)" class="st5 st6 st7">Early Days</text>
</g>
    <g id="Halo_00000113340817848387504260000002096666363849827992_" transform="translate(33 31)">
<circle class="st8" cx="78.7" cy="-176.6" r="30"/>
      <circle class="st9" cx="78.7" cy="-176.6" r="27.5"/>
</g>
    <g id="Halo-2_00000109723412444937877040000005934112801616303798_" transform="translate(51 49)">
<circle class="st8" cx="60.7" cy="-194.6" r="12"/>
      <circle class="st9" cx="60.7" cy="-194.6" r="9.5"/>
</g>
</g>
</g>
    <g id="Halo-7_00000139282358890370943900000014816891472202418867_" transform="translate(953 593)">
<circle class="st8" cx="56.7" cy="-234" r="12"/>
      <circle class="st9" cx="56.7" cy="-234" r="9.5"/>
</g>
</g>
</g>
</g>
  <g id="Ebene_2">
</g>
</svg>
